# xmcd
#
# Track frame offsets:
#	150
#	10580
#	22056
#	31437
#	42503
#	54815
#	66481
#	76534
#	89436
#	100466
#	111345
#	122708
#
# Disc length: 1788 seconds
#
# Revision: 1
# Processed by: cddbd v1.5.1PL0 Copyright (c) Steve Scherf et al.
# Submitted via: audiograbber 1.83.01
#
DISCID=9706fa0c
DTITLE=Dottie West - Dottie West Sings
DYEAR=1900
DGENRE=Country
TTITLE0=No Sign of Living
TTITLE1=Happiness Lives Next Door
TTITLE2=I Can Turn You Every Way But Loose
TTITLE3=Left Over Corner of Your Heart
TTITLE4=Don't You Ever Get Tired (Of Hurting Me)
TTITLE5=It Just Takes Practice
TTITLE6=You're The Only World I Know
TTITLE7=I'll Pick Up My Heart And Go Home
TTITLE8=(You Took) The Easy Way Out
TTITLE9=When Two Worlds Collide
TTITLE10=Gettin' Married Has Made Us Strangers
TTITLE11=If I Can Stay Away Long Enough
EXTD=
EXTT0=
EXTT1=
EXTT2=
EXTT3=
EXTT4=
EXTT5=
EXTT6=
EXTT7=
EXTT8=
EXTT9=
EXTT10=
EXTT11=
PLAYORDER=
